<svg version="1.1" id="Layer_1" xmlns="http://www.w3.org/2000/svg" xmlns:xlink="http://www.w3.org/1999/xlink" x="0px" y="0px"
	 width="100%" viewBox="0 0 720 720" enable-background="new 0 0 720 720" xml:space="preserve">
<path fill="#000000" opacity="1.000000" stroke="none" 
	d="
M368.924316,265.000000 
	C368.924011,332.406189 368.924011,399.312347 368.924011,466.474884 
	C371.535461,465.812164 372.042480,464.065277 372.983154,462.794312 
	C388.737213,441.508820 409.693604,427.776611 434.927551,420.428284 
	C443.280090,417.995911 446.043610,420.656464 445.340576,429.260803 
	C445.062714,432.661530 443.263336,434.201599 440.196075,435.035156 
	C428.229462,438.287262 416.804413,442.779541 406.712708,450.185974 
	C385.385132,465.838684 372.084595,486.695831 366.370605,512.465637 
	C366.119110,513.599854 365.772888,514.716797 365.582886,515.860352 
	C365.163239,518.385925 364.848938,521.141418 361.488647,521.152588 
	C357.959137,521.164368 356.710968,518.547241 356.194336,515.559998 
	C354.280365,504.492981 351.086395,493.858612 345.489105,484.059296 
	C331.809814,460.110504 311.948334,443.884491 285.343384,436.161041 
	C277.326843,433.833801 276.650513,433.168427 276.685669,426.923309 
	C276.725494,419.849304 278.755493,418.144928 285.516357,419.976196 
	C309.169830,426.382935 329.269806,438.452698 344.860535,457.597748 
	C347.255524,460.538727 349.575165,463.541107 352.757782,467.561218 
	C352.904510,464.321960 353.077942,462.258881 353.078857,460.195709 
	C353.086823,442.699524 353.008759,425.203156 353.059052,407.707153 
	C353.247742,342.059814 353.475281,276.412537 353.688812,210.765259 
	C353.691528,209.932129 353.726379,209.098343 353.703796,208.266006 
	C353.582672,203.801346 356.025696,201.459961 360.170959,200.811890 
	C364.024658,200.209412 367.710419,202.949860 368.515747,207.046234 
	C368.928864,209.147644 368.918762,211.352615 368.921967,213.511047 
	C368.947083,230.507324 368.929199,247.503677 368.924316,265.000000 
z"/>
</svg>